# xmcd
#
# Track frame offsets:
#	150
#	10854
#	28451
#	50352
#	69046
#	83168
#	98552
#	116634
#	133108
#	145311
#
# Disc length: 2218 seconds
#
# Revision: 1
# Processed by: cddbd v1.5.2PL0 Copyright (c) Steve Scherf et al.
# Submitted via: audiograbber 1.83.01
#
DISCID=8108a80a
DTITLE=Krewe of Renegades - Mardi Gras Gumbo
DYEAR=1997
DGENRE=
TTITLE0=Mardi Gras Mambo
TTITLE1=My Toot Toot
TTITLE2=Junco Partner
TTITLE3=Little Ole Money Maker
TTITLE4=Something You Got
TTITLE5=Ophelia
TTITLE6=Hey Pocky Way
TTITLE7=November Rose
TTITLE8=Roamin' itus
TTITLE9=Hip Shakin' Mama
EXTD=
EXTT0=
EXTT1=
EXTT2=
EXTT3=
EXTT4=
EXTT5=
EXTT6=
EXTT7=
EXTT8=
EXTT9=
PLAYORDER=
